<?xml version="1.0" encoding="UTF-8" standalone="no"?>
<svg
   version="1.0"
   width="862.61322pt"
   height="996.56921pt"
   viewBox="0 0 862.61322 996.56921"
   preserveAspectRatio="xMidYMid"
   id="svg12"
   sodipodi:docname="logov2.svg"
   inkscape:export-filename="logov2.svg"
   inkscape:export-xdpi="96"
   inkscape:export-ydpi="96"
   inkscape:version="1.2 (dc2aedaf03, 2022-05-15)"
   xmlns:inkscape="http://www.inkscape.org/namespaces/inkscape"
   xmlns:sodipodi="http://sodipodi.sourceforge.net/DTD/sodipodi-0.dtd"
   xmlns="http://www.w3.org/2000/svg"
   xmlns:svg="http://www.w3.org/2000/svg">
  <defs
     id="defs16" />
  <sodipodi:namedview
     id="namedview14"
     pagecolor="#ffffff"
     bordercolor="#000000"
     borderopacity="0.25"
     inkscape:showpageshadow="2"
     inkscape:pageopacity="0.0"
     inkscape:pagecheckerboard="0"
     inkscape:deskcolor="#d1d1d1"
     inkscape:document-units="pt"
     showgrid="false"
     inkscape:zoom="0.60791016"
     inkscape:cx="432.62972"
     inkscape:cy="683.48916"
     inkscape:window-width="1920"
     inkscape:window-height="991"
     inkscape:window-x="-9"
     inkscape:window-y="-9"
     inkscape:window-maximized="1"
     inkscape:current-layer="g10" />
  <g
     transform="matrix(0.1,0,0,-0.1,-85.624186,1004.6407)"
     fill="#000000"
     stroke="none"
     id="g10">
    <path
       style="font-variation-settings:normal;opacity:1;vector-effect:none;fill:#ffffff;fill-opacity:1;stroke:none;stroke-width:0.749999;stroke-linecap:butt;stroke-linejoin:miter;stroke-miterlimit:4;stroke-dasharray:none;stroke-dashoffset:0;stroke-opacity:1;-inkscape-stroke:none;stop-color:#000000;stop-opacity:1"
       d="M 87.399998,701.5 523.10362,1009.1952 914.19756,735.30602 940.90464,678.62963 895.69155,325.70602 481.15663,39.479518 164.08675,257.8506 129.54217,340.51085 Z"
       id="path854"
       transform="matrix(9.9999998,0,0,-9.9999998,0,10240)"
       sodipodi:nodetypes="ccccccccc" />
    <path
       d="m 4635,10036 c -117,-26 -221,-79 -356,-182 -30,-23 -277,-198 -549,-389 -272,-192 -706,-498 -965,-680 -258,-182 -549,-386 -645,-454 -223,-155 -332,-245 -478,-395 -164,-169 -260,-299 -339,-459 -91,-184 -117,-302 -137,-632 -15,-238 -260,-2895 -293,-3175 -23,-194 -22,-355 1,-445 52,-200 161,-350 336,-463 47,-30 168,-114 270,-187 169,-120 517,-368 2310,-1645 327,-233 720,-513 872,-621 152,-109 291,-205 309,-215 27,-13 50,-16 119,-11 111,7 194,40 329,130 57,38 867,607 1800,1265 1662,1171 1806,1276 1927,1411 115,129 252,375 306,551 53,171 54,150 -141,1945 -94,869 -177,1605 -184,1635 -19,79 -50,133 -99,174 -24,20 -356,257 -738,528 -382,270 -879,622 -1105,782 -225,159 -516,365 -645,456 -129,92 -455,323 -725,513 -269,191 -521,370 -560,398 -86,63 -197,120 -290,149 -87,27 -244,35 -330,16 z m 277,-435 c 34,-17 88,-52 122,-77 34,-25 162,-116 286,-202 124,-87 459,-324 745,-526 286,-203 682,-484 880,-624 198,-140 520,-368 715,-507 195,-138 446,-316 558,-395 111,-79 202,-146 202,-149 0,-3 -17,-17 -38,-30 -113,-73 -2597,-1854 -2651,-1900 -121,-105 -289,-332 -410,-553 -41,-75 -89,-210 -116,-326 -9,-37 -92,-845 -185,-1797 C 4927,1564 4847,763 4843,737 l -8,-48 -55,39 c -110,78 -943,671 -1260,897 -179,127 -577,411 -885,630 -308,219 -695,495 -860,613 -164,117 -316,222 -336,232 -54,28 -131,118 -153,180 -25,69 -26,156 -4,340 10,80 47,471 83,870 37,399 73,793 81,875 55,575 154,1662 154,1700 0,26 12,81 26,123 55,165 167,325 355,507 139,135 132,130 679,515 245,172 596,420 780,550 629,444 975,687 1030,722 30,19 69,48 85,62 81,74 139,97 228,92 52,-3 83,-11 129,-35 z M 8802,6945 c 38,-26 81,-89 92,-136 12,-52 356,-3103 356,-3158 0,-73 -22,-158 -64,-247 -81,-172 -155,-255 -366,-414 C 8638,2854 5450,601 5371,553 c -60,-36 -146,-58 -192,-48 -29,7 -99,59 -99,75 0,4 29,14 65,23 36,9 87,31 113,49 26,17 839,593 1807,1278 1812,1284 1823,1291 1917,1424 82,115 148,285 148,380 0,75 -337,3070 -353,3141 -8,33 -18,68 -22,78 -10,24 4,21 47,-8 z m -380,-885 c 48,-14 92,-51 123,-104 26,-45 60,-162 69,-243 l 7,-52 -137,-97 c -107,-77 -138,-94 -145,-83 -5,8 -9,19 -9,25 0,21 -41,64 -61,64 -11,0 -39,-20 -64,-44 -33,-33 -49,-60 -64,-111 -26,-84 -28,-186 -4,-211 18,-17 18,-17 243,2 95,8 149,-6 200,-52 161,-146 133,-700 -56,-1122 -127,-282 -361,-481 -509,-432 -115,38 -194,206 -220,472 l -6,66 144,108 c 80,59 149,105 153,103 5,-2 18,-32 29,-66 35,-104 70,-125 136,-80 90,60 134,167 134,324 0,152 2,150 -245,144 -126,-4 -173,11 -226,72 -61,72 -79,153 -79,347 1,183 14,264 70,436 87,265 235,463 393,525 55,21 74,23 124,9 z M 7417,5243 c 56,-26 108,-79 149,-153 29,-50 84,-207 84,-238 0,-13 -47,-53 -161,-136 -88,-64 -164,-116 -168,-116 -4,0 -13,16 -20,35 -18,50 -73,103 -116,111 -88,16 -250,-116 -343,-278 -129,-226 -195,-498 -194,-803 0,-131 4,-174 21,-239 46,-174 130,-246 245,-212 143,43 279,229 366,498 l 31,97 170,125 c 93,69 171,126 173,126 5,0 -29,-163 -59,-281 -105,-412 -277,-755 -488,-972 -228,-234 -446,-273 -600,-108 -308,329 -220,1363 173,2050 166,290 365,477 550,517 69,15 121,9 187,-23 z m -1623,-1543 306,-235 -1,-50 c 0,-27 -4,-102 -8,-165 l -8,-115 -133,-270 c -73,-148 -193,-394 -267,-545 -75,-151 -191,-389 -259,-529 -69,-140 -126,-252 -129,-250 -2,3 6,128 17,279 l 21,275 174,350 c 96,193 210,423 253,512 l 78,162 -201,157 c -111,87 -203,158 -204,159 -1,1 6,113 17,251 11,137 20,251 20,252 0,9 36,-17 324,-238 z m 3228,-707 c 27,-24 22,-71 -13,-142 -61,-122 -184,-171 -204,-82 -13,58 68,190 137,224 42,21 57,21 80,0 z m -440,-300 c 27,-24 22,-71 -13,-142 -61,-122 -184,-171 -204,-82 -13,58 68,190 137,224 42,21 57,21 80,0 z m -943,-778 1,-61 -192,-136 c -106,-74 -319,-224 -473,-333 l -280,-197 -8,96 c -5,53 -7,103 -4,110 3,7 205,154 449,326 243,172 454,322 468,333 l 25,19 7,-49 c 3,-26 7,-75 7,-108 z"
       id="path2"
       style="display:inline" />
    <path
       d="m 4644,9204 c -102,-54 -449,-298 -449,-316 0,-6 23,-28 50,-47 28,-20 114,-81 190,-135 77,-55 232,-165 345,-244 113,-80 241,-171 285,-202 44,-31 146,-104 227,-161 81,-57 235,-167 344,-244 207,-147 267,-190 375,-264 36,-25 135,-95 220,-155 231,-165 691,-490 804,-569 55,-39 116,-82 135,-97 75,-58 58,-63 268,85 105,74 220,151 256,171 36,20 68,40 71,44 6,10 -35,41 -236,182 -74,52 -172,121 -219,154 -47,33 -175,124 -285,201 -110,78 -218,155 -240,171 -22,16 -193,137 -380,269 -187,132 -488,345 -670,473 -181,128 -406,287 -500,353 -93,66 -245,173 -337,239 -92,65 -175,118 -186,118 -10,0 -41,-12 -68,-26 z"
       id="path4" />
    <path
       d="m 3374,8323 c -98,-69 -215,-152 -259,-183 -44,-31 -80,-62 -80,-70 0,-7 54,-52 120,-98 66,-47 194,-138 285,-202 91,-64 273,-193 405,-286 132,-94 357,-253 500,-354 143,-101 366,-258 495,-350 129,-91 272,-192 317,-224 87,-60 103,-76 79,-76 -8,0 -93,15 -188,34 -95,19 -227,44 -293,56 -66,12 -160,30 -210,40 -84,18 -621,123 -800,156 -44,8 -100,19 -125,24 -216,44 -526,84 -740,95 -537,28 -1021,33 -1039,11 -18,-22 -58,-147 -71,-226 -7,-40 -20,-157 -30,-259 l -17,-186 21,-22 c 11,-12 221,-163 466,-335 245,-173 553,-391 685,-485 132,-93 317,-224 410,-289 94,-66 303,-214 465,-329 851,-602 1014,-716 1025,-711 13,5 19,56 39,315 4,41 15,119 26,174 11,55 20,101 20,102 0,2 -55,42 -122,90 -68,47 -217,153 -333,235 -115,82 -256,182 -313,222 -57,40 -140,99 -185,131 -45,32 -104,73 -132,92 -27,19 -71,49 -96,67 -26,18 -212,150 -414,293 -564,399 -568,402 -600,429 l -30,25 117,1 c 64,0 235,1 380,3 266,2 367,-2 763,-29 205,-14 474,-49 710,-94 55,-11 163,-31 240,-45 144,-27 216,-41 630,-120 132,-25 304,-57 382,-71 l 141,-24 204,143 c 391,275 409,289 397,303 -5,7 -110,83 -232,170 -489,348 -606,430 -937,664 -190,134 -441,312 -558,394 -117,83 -304,215 -415,294 -390,275 -479,338 -684,485 -114,81 -215,147 -224,147 -9,0 -96,-57 -195,-127 z"
       id="path6" />
    <path
       d="m 1665,5548 c -2,-7 -15,-137 -29,-288 -20,-217 -23,-277 -13,-286 6,-7 183,-132 392,-280 473,-333 1421,-1004 1496,-1058 168,-122 224,-170 329,-275 64,-64 138,-147 165,-186 114,-164 162,-339 144,-520 -34,-339 -220,-367 -629,-97 -104,69 -233,159 -865,607 -110,78 -317,224 -460,325 -143,101 -345,244 -450,318 -104,74 -198,137 -207,140 -10,2 -20,-2 -23,-10 -3,-8 -17,-129 -30,-269 -18,-199 -21,-259 -12,-278 7,-14 174,-139 392,-293 209,-147 436,-308 505,-357 69,-48 258,-182 420,-297 162,-114 394,-278 515,-364 432,-307 630,-404 855,-417 239,-14 395,91 483,327 53,143 73,326 57,526 -38,475 -259,920 -660,1324 -162,164 -255,238 -590,475 -162,115 -347,245 -410,290 -63,45 -322,228 -575,406 -253,179 -531,376 -617,437 -86,62 -162,112 -168,112 -6,0 -13,-6 -15,-12 z"
       id="path8" />
  </g>
</svg>
