<?xml version="1.0" encoding="utf-8"?>
<!-- Generator: Adobe Illustrator 21.0.0, SVG Export Plug-In . SVG Version: 6.00 Build 0)  -->
<svg version="1.1" id="Layer_1" xmlns="http://www.w3.org/2000/svg" xmlns:xlink="http://www.w3.org/1999/xlink" x="0px" y="0px"
	 viewBox="0 0 71 71" style="enable-background:new 0 0 71 71;" xml:space="preserve">
<g>
	<path d="M71,46.6C71,46.6,71,46.6,71,46.6c0-0.1-0.1-0.3-0.1-0.4c0,0,0-0.1,0-0.1c-0.1-0.1-0.1-0.2-0.2-0.3L60.3,35.5l10.3-10.3
		c0.4-0.4,0.6-1.1,0.3-1.6s-0.8-0.9-1.4-0.9H48.4V1.5c0-0.6-0.4-1.2-0.9-1.4c-0.6-0.2-1.2-0.1-1.6,0.3L23.6,22.7H1.5
		c-0.8,0-1.5,0.7-1.5,1.5v22.7c0,0.8,0.7,1.5,1.5,1.5h19.1l-8.8,8.8c-0.6,0.6-0.6,1.5,0,2.1l11.3,11.3c0.1,0.1,0.1,0.1,0.2,0.2
		c0,0,0.1,0,0.1,0.1c0.1,0,0.1,0.1,0.2,0.1c0,0,0.1,0,0.1,0c0.1,0,0.1,0,0.2,0c0.1,0,0.2,0,0.3,0c0,0,0,0,0,0h22.7h22.7
		c0.8,0,1.5-0.7,1.5-1.5V46.9C71,46.8,71,46.7,71,46.6z M25.7,25.7h19.7v19.7H25.7V25.7z M48.4,27.8l17.6,17.6H48.4V27.8z
		 M65.9,25.7l-7.7,7.7l-7.7-7.7H65.9z M45.4,5.1v17.6H27.8L45.4,5.1z M3,25.7h19.7v19.7H3V25.7z M22.7,50.5v15.4L15,58.2L22.7,50.5z
		 M25.7,48.4h19.7V68H25.7V48.4z M68,68H48.4V48.4H68V68z"/>
	<path d="M16.9,30.3c-0.5-0.4-1.1-0.7-1.8-0.8c-0.7-0.2-1.5-0.3-2.3-0.3H7.2v12.6h4.2v-3.4h1.4c0.9,0,1.6-0.1,2.3-0.3
		c0.7-0.2,1.3-0.5,1.8-0.9c0.5-0.4,0.9-0.9,1.2-1.5s0.4-1.3,0.4-2v0c0-0.7-0.1-1.4-0.4-2C17.8,31.2,17.4,30.7,16.9,30.3z M14.3,34
		c0,0.5-0.2,0.8-0.5,1c-0.3,0.2-0.8,0.4-1.3,0.4h-1.1v-2.8h1.2c0.6,0,1,0.1,1.3,0.4C14.2,33.2,14.3,33.5,14.3,34L14.3,34z"/>
	<polygon points="34.2,37 40.4,37 40.4,33.9 34.2,33.9 34.2,32.7 40.8,32.7 40.8,29.2 30.1,29.2 30.1,41.8 40.9,41.8 40.9,38.4 
		34.2,38.4 	"/>
	<path d="M33.4,51.8l-5.3,12.7h4.5l0.6-1.7h4.4l0.7,1.7h4.6l-5.3-12.7H33.4z M34.3,59.9l1.2-3.1l1.2,3.1H34.3z"/>
	<polygon points="56,61.8 57.1,60.5 59.6,64.5 64.6,64.5 60.1,57.4 64.5,51.9 59.6,51.9 56,56.6 56,51.9 51.8,51.9 51.8,64.5 
		56,64.5 "/>
</g>
</svg>
