<svg xmlns="http://www.w3.org/2000/svg" viewBox="0 0 290 331.92"><defs><style>.cls-1{fill:#27aae1;}.cls-2{fill:#1b75bc;}.cls-3{fill:#72c6ef;}.cls-4{fill:#fff;}</style></defs><title>qrt-large</title><g id="Layer_2" data-name="Layer 2"><g id="Layer_1-2" data-name="Layer 1"><polygon class="cls-1" points="102.36 24.66 102.36 46.34 121.48 35.5 102.36 24.66"/><polygon class="cls-1" points="122.38 58.67 122.38 37 103.26 47.84 122.38 58.67"/><polygon class="cls-1" points="100.62 46.34 100.62 24.66 81.51 35.5 100.62 46.34"/><polygon class="cls-1" points="145.87 24.66 145.87 46.34 164.99 35.5 145.87 24.66"/><polygon class="cls-1" points="165.88 58.67 165.88 37 146.76 47.84 165.88 58.67"/><polygon class="cls-1" points="189.38 24.66 189.38 46.34 208.49 35.5 189.38 24.66"/><polygon class="cls-1" points="187.63 46.34 187.63 24.66 168.52 35.5 187.63 46.34"/><polygon class="cls-1" points="124.12 37 124.12 58.67 143.24 47.84 124.12 37"/><polygon class="cls-1" points="145.87 49.33 145.87 71.01 164.99 60.17 145.87 49.33"/><polygon class="cls-1" points="144.13 71.01 144.13 49.33 125.01 60.17 144.13 71.01"/><polygon class="cls-1" points="167.62 37 167.62 58.67 186.74 47.84 167.62 37"/><polygon class="cls-1" points="122.38 34.01 122.38 12.33 103.26 23.17 122.38 34.01"/><polygon class="cls-1" points="145.87 0 145.87 21.68 164.99 10.84 145.87 0"/><polygon class="cls-1" points="144.13 0 125.01 10.84 144.13 21.68 144.13 0"/><polygon class="cls-1" points="167.62 12.33 167.62 34.01 186.74 23.17 167.62 12.33"/><polygon class="cls-1" points="144.13 46.34 144.13 24.66 125.01 35.5 144.13 46.34"/><polygon class="cls-1" points="124.12 12.33 124.12 34.01 143.24 23.17 124.12 12.33"/><polygon class="cls-1" points="165.88 34.01 165.88 12.33 146.76 23.17 165.88 34.01"/><polygon class="cls-2" points="80.61 37 80.61 58.67 99.73 47.84 80.61 37"/><polygon class="cls-2" points="102.36 49.33 102.36 71.01 121.48 60.17 102.36 49.33"/><polygon class="cls-2" points="100.62 71.01 100.62 49.33 81.51 60.17 100.62 71.01"/><polygon class="cls-2" points="124.12 61.66 124.12 83.34 143.24 72.5 124.12 61.66"/><polygon class="cls-2" points="144.13 95.67 144.13 73.99 125.01 84.83 144.13 95.67"/><polygon class="cls-2" points="122.38 83.34 122.38 61.66 103.26 72.5 122.38 83.34"/><polygon class="cls-2" points="102.36 73.99 102.36 95.67 121.48 84.83 102.36 73.99"/><polygon class="cls-2" points="124.12 86.33 124.12 108 143.24 97.17 124.12 86.33"/><polygon class="cls-2" points="122.38 108 122.38 86.33 103.26 97.16 122.38 108"/><polygon class="cls-2" points="102.36 98.66 102.36 120.33 121.48 109.5 102.36 98.66"/><polygon class="cls-2" points="80.61 61.66 80.61 83.34 99.73 72.5 80.61 61.66"/><polygon class="cls-2" points="100.62 95.67 100.62 73.99 81.51 84.83 100.62 95.67"/><polygon class="cls-2" points="80.61 86.33 80.61 108 99.73 97.17 80.61 86.33"/><polygon class="cls-2" points="100.62 120.34 100.62 98.66 81.51 109.5 100.62 120.34"/><polygon class="cls-2" points="144.13 120.33 144.13 98.66 125.01 109.5 144.13 120.33"/><polygon class="cls-2" points="124.12 110.99 124.12 132.67 143.24 121.83 124.12 110.99"/><polygon class="cls-2" points="144.13 145 144.13 123.32 125.01 134.16 144.13 145"/><polygon class="cls-2" points="122.38 132.67 122.38 110.99 103.26 121.83 122.38 132.67"/><polygon class="cls-3" points="187.63 71.01 187.63 49.33 168.52 60.17 187.63 71.01"/><polygon class="cls-3" points="165.88 83.34 165.88 61.66 146.76 72.5 165.88 83.34"/><polygon class="cls-3" points="145.87 73.99 145.87 95.67 164.99 84.83 145.87 73.99"/><polygon class="cls-3" points="165.88 108 165.88 86.33 146.76 97.16 165.88 108"/><polygon class="cls-3" points="145.87 98.66 145.87 120.33 164.99 109.5 145.87 98.66"/><polygon class="cls-3" points="167.62 86.33 167.62 108 186.74 97.17 167.62 86.33"/><polygon class="cls-3" points="167.62 61.66 167.62 83.34 186.74 72.5 167.62 61.66"/><polygon class="cls-3" points="209.39 58.67 209.39 37 190.27 47.84 209.39 58.67"/><polygon class="cls-3" points="189.38 49.33 189.38 71.01 208.49 60.17 189.38 49.33"/><polygon class="cls-3" points="145.87 123.32 145.87 145 164.99 134.16 145.87 123.32"/><polygon class="cls-3" points="165.88 132.67 165.88 110.99 146.76 121.83 165.88 132.67"/><polygon class="cls-3" points="167.62 110.99 167.62 132.67 186.74 121.83 167.62 110.99"/><polygon class="cls-3" points="189.38 98.66 189.38 120.34 208.49 109.5 189.38 98.66"/><polygon class="cls-3" points="189.38 73.99 189.38 95.67 208.49 84.83 189.38 73.99"/><polygon class="cls-3" points="209.39 108 209.39 86.33 190.27 97.16 209.39 108"/><polygon class="cls-3" points="187.63 120.34 187.63 98.66 168.52 109.5 187.63 120.34"/><polygon class="cls-3" points="187.63 95.67 187.63 73.99 168.52 84.83 187.63 95.67"/><polygon class="cls-3" points="209.39 83.34 209.39 61.66 190.27 72.5 209.39 83.34"/><path class="cls-4" d="M258.25,178.15h-50.5v18.59h31.91v89.83h18.59V196.74H290V178.15Zm-59.46,59.94a39.79,39.79,0,0,0,4.49-9.83A38.51,38.51,0,0,0,204.9,217a37.19,37.19,0,0,0-3.09-15.1,39.68,39.68,0,0,0-20.68-20.68,37.06,37.06,0,0,0-15.1-3.1H125.45V286.57H144V196.74h22a19.66,19.66,0,0,1,14.4,6,20.16,20.16,0,0,1,4.34,22,21.69,21.69,0,0,1-4.34,6.66,19.66,19.66,0,0,1-14.4,6H158l-7.59,18.59h12.7l19.67,30.51H204.9l-22.15-34.38a37.68,37.68,0,0,0,9.07-6,38.7,38.7,0,0,0,7-8.13m-88.74,11.16a56.56,56.56,0,0,1-7.2,14.87l9.76,9.91v26.33L56.23,244V217.65l33.14,33A37.3,37.3,0,0,0,94,232.21a37.7,37.7,0,0,0-2.79-14.41A37.05,37.05,0,0,0,83,205.57a37.92,37.92,0,0,0-12.23-8.29,37.22,37.22,0,0,0-14.56-2.87,36.77,36.77,0,0,0-14.41,2.87,38.07,38.07,0,0,0-12.24,8.29,37.05,37.05,0,0,0-8.21,12.23,37.88,37.88,0,0,0-2.78,14.41,38.39,38.39,0,0,0,2.78,14.48,37.94,37.94,0,0,0,20.45,20.52A37.63,37.63,0,0,0,56.23,270a34,34,0,0,0,3.94-.23c1.3-.16,2.56-.34,3.8-.54l14.71,14.71a60.55,60.55,0,0,1-10.76,3.41,56.27,56.27,0,0,1-33.61-3.18,55.77,55.77,0,0,1-17.89-12.08,57.5,57.5,0,0,1-12-18,56.66,56.66,0,0,1,0-43.83,57.5,57.5,0,0,1,12-18,55.77,55.77,0,0,1,17.89-12.08,55.07,55.07,0,0,1,21.92-4.41,55,55,0,0,1,22,4.41,56.5,56.5,0,0,1,30,30,55.11,55.11,0,0,1,4.42,21.92,56.13,56.13,0,0,1-2.56,17"/><path class="cls-1" d="M48.25,325.93a5,5,0,0,1-.86,2.8l.86.88v2.31l-5-5v-2.31l2.91,2.9a3.3,3.3,0,0,0,.41-1.62,3.21,3.21,0,0,0-1-2.35,3.34,3.34,0,0,0-1.07-.73,3.25,3.25,0,0,0-1.28-.25,3.2,3.2,0,0,0-1.27.25,3.38,3.38,0,0,0-1.08.73,3.31,3.31,0,0,0-1,2.35,3.23,3.23,0,0,0,.25,1.27,3,3,0,0,0,.72,1.08,3.21,3.21,0,0,0,2.35,1,1.94,1.94,0,0,0,.34,0l.34-.05,1.29,1.3a4.79,4.79,0,0,1-.95.3,4.9,4.9,0,0,1-1,.11,4.79,4.79,0,0,1-1.93-.39,4.93,4.93,0,0,1-1.58-1.06,5,5,0,0,1-1.05-1.58,5,5,0,0,1,1.05-5.44,5,5,0,0,1,1.58-1.07,5.09,5.09,0,0,1,3.86,0A5.08,5.08,0,0,1,47.86,324,4.82,4.82,0,0,1,48.25,325.93Z"/><path class="cls-1" d="M57.27,321.17v5.72a3.85,3.85,0,0,1-.32,1.56,3.9,3.9,0,0,1-.86,1.28,4.13,4.13,0,0,1-1.27.86,3.91,3.91,0,0,1-1.56.31,3.85,3.85,0,0,1-1.56-.31,4.18,4.18,0,0,1-1.28-.86,4,4,0,0,1-1.17-2.84v-5.72h1.64v5.72a2.53,2.53,0,0,0,.17.91,2.33,2.33,0,0,0,.52.77,2.44,2.44,0,0,0,.77.52,2.34,2.34,0,0,0,.91.18,2.29,2.29,0,0,0,1.67-.7,2.34,2.34,0,0,0,.7-1.68v-5.72Z"/><path class="cls-1" d="M65,325.61a2.93,2.93,0,0,1,.87,1,2.68,2.68,0,0,1,.33,1.31v0A2.82,2.82,0,0,1,66,329a2.91,2.91,0,0,1-.6.89,2.71,2.71,0,0,1-.89.59,2.56,2.56,0,0,1-1.07.22H60.74l.66-1.64h2.06a1.12,1.12,0,0,0,.81-.33,1.1,1.1,0,0,0,.33-.81v0a1.1,1.1,0,0,0-.33-.81,1.12,1.12,0,0,0-.81-.33H60.12v3.95H58.48v-9.54h4.31a2.64,2.64,0,0,1,1.08.22,2.59,2.59,0,0,1,.89.6,2.78,2.78,0,0,1,.59.88,2.64,2.64,0,0,1,.22,1.08v0a2.84,2.84,0,0,1-.14.88A3.14,3.14,0,0,1,65,325.61ZM63.93,324a1.13,1.13,0,0,0-1.14-1.14H60.12v2.31h2.67A1.13,1.13,0,0,0,63.93,324Z"/><path class="cls-1" d="M68.84,322.81v2.31H72.4l.41,1.64h-4v2.31h4.79v1.64H67.21v-9.54h6.42v1.64Z"/><path class="cls-1" d="M84.23,324.59a3.32,3.32,0,0,1-.54,1.85,3.27,3.27,0,0,1-1.41,1.24l2,3h-2L80.55,328H79.43l.67-1.64h.71a1.76,1.76,0,0,0,1.27-.53,1.93,1.93,0,0,0,.38-.59,1.72,1.72,0,0,0,0-1.36,1.79,1.79,0,0,0-1.65-1.1H78.87v7.9H77.24v-9.54h3.57a3.29,3.29,0,0,1,1.33.27A3.56,3.56,0,0,1,84,323.26,3.33,3.33,0,0,1,84.23,324.59Z"/><path class="cls-1" d="M86.87,322.81v2.31h3.55l.41,1.64h-4v2.31h4.78v1.64H85.23v-9.54h6.42v1.64Z"/><path class="cls-1" d="M99.06,328a3.3,3.3,0,0,1-.22,1.21,2.54,2.54,0,0,1-.62.91,2.66,2.66,0,0,1-1,.58,3.7,3.7,0,0,1-1.28.21,5.3,5.3,0,0,1-2-.36,5.55,5.55,0,0,1-1.46-.83l1.13-1.13a3.3,3.3,0,0,0,1,.63,2.35,2.35,0,0,0,.64.17,3.52,3.52,0,0,0,.49.05,2.27,2.27,0,0,0,.65-.09,2,2,0,0,0,.51-.24,1.07,1.07,0,0,0,.46-.9.85.85,0,0,0-.25-.61,1.3,1.3,0,0,0-.49-.36,2.91,2.91,0,0,0-.51-.22l-.49-.15-.13,0a.25.25,0,0,1-.09,0,.13.13,0,0,1-.08,0c-.2-.06-.47-.15-.83-.29a5,5,0,0,1-1.07-.56,2.4,2.4,0,0,1-1.24-2,2.94,2.94,0,0,1,.28-1.36,2.61,2.61,0,0,1,.73-.9,2.83,2.83,0,0,1,1-.49,4.13,4.13,0,0,1,1.08-.15,4.9,4.9,0,0,1,1.65.23,6.3,6.3,0,0,1,1.07.46,2.5,2.5,0,0,1,.34.24l.26.21-1.16,1.17a3.32,3.32,0,0,0-.75-.56,2.77,2.77,0,0,0-1.2-.27,2.13,2.13,0,0,0-.55.07,1.54,1.54,0,0,0-.47.18,1.08,1.08,0,0,0-.6,1,.88.88,0,0,0,.24.63,1.62,1.62,0,0,0,.49.37,3.71,3.71,0,0,0,.55.22l.53.15.16,0,.26.08.45.16.57.26a4.76,4.76,0,0,1,.6.36A2.46,2.46,0,0,1,99.06,328Z"/><path class="cls-1" d="M101.56,322.81v2.31h3.56l.41,1.64h-4v2.31h4.79v1.64H99.93v-9.54h6.42v1.64Z"/><path class="cls-1" d="M117.25,330.71h-1.8l-.73-1.64-.74-1.63-1.93-4.28-1.94,4.28h2.48l.74,1.63h-4l-.73,1.64h-1.8l4.31-9.54h1.79Z"/><path class="cls-1" d="M124.77,324.59a3.46,3.46,0,0,1-1.15,2.57,3.43,3.43,0,0,1-.8.52l2,3h-2L121.09,328H120l.67-1.64h.71a1.72,1.72,0,0,0,1.26-.53,2,2,0,0,0,.39-.59,1.74,1.74,0,0,0-.39-1.93,1.69,1.69,0,0,0-1.26-.53h-1.94v7.9h-1.63v-9.54h3.57a3.25,3.25,0,0,1,1.32.27,3.45,3.45,0,0,1,1.09.74,3.49,3.49,0,0,1,.73,1.08A3.17,3.17,0,0,1,124.77,324.59Z"/><path class="cls-1" d="M133.77,329.43a5.07,5.07,0,0,1-1.58,1.07,4.84,4.84,0,0,1-1.94.39,4.78,4.78,0,0,1-1.92-.39,5,5,0,0,1-1.59-1.06,5,5,0,0,1-1.06-1.58,5,5,0,0,1,0-3.86,4.93,4.93,0,0,1,1.06-1.58,5,5,0,0,1,1.59-1.07,4.77,4.77,0,0,1,1.92-.38,4.83,4.83,0,0,1,1.94.38,5.07,5.07,0,0,1,1.58,1.07l-1.16,1.16a3.34,3.34,0,0,0-1.07-.73,3.26,3.26,0,0,0-1.29-.25,3.18,3.18,0,0,0-1.26.25,3.43,3.43,0,0,0-1.81,1.81,3.2,3.2,0,0,0-.25,1.27,3.23,3.23,0,0,0,.25,1.27,3.18,3.18,0,0,0,.73,1.08,3.21,3.21,0,0,0,2.34,1,3.44,3.44,0,0,0,1.29-.24,3.34,3.34,0,0,0,1.07-.73Z"/><path class="cls-1" d="M141.61,321.17v9.54H140v-3.95h-4v3.95h-1.63v-9.54H136v3.95h4v-3.95Z"/><path class="cls-1" d="M152.09,330.64a7,7,0,0,0-.78-1.17,3.16,3.16,0,0,1-.37.45,2.88,2.88,0,0,1-1,.67,3.1,3.1,0,0,1-3.39-.67,2.86,2.86,0,0,1-.68-1,3.05,3.05,0,0,1-.23-1.2,2.41,2.41,0,0,1,.73-1.77l.28-.23.3-.21a5.17,5.17,0,0,1-.62-.9,2.26,2.26,0,0,1-.24-1,2.53,2.53,0,0,1,.21-1,2.88,2.88,0,0,1,.57-.85,2.65,2.65,0,0,1,.85-.57,2.53,2.53,0,0,1,1-.21,2.6,2.6,0,0,1,1,.21,2.65,2.65,0,0,1,.85.57,3.06,3.06,0,0,1,.56.85,2.53,2.53,0,0,1,.21,1h-1.63a1,1,0,0,0-.3-.72,1,1,0,0,0-.72-.3,1,1,0,0,0-1,1,.78.78,0,0,0,.11.37,2,2,0,0,0,.27.39,4.4,4.4,0,0,0,.37.38l.41.37.42.36c.15.11.3.24.47.36l.69.58c.05-.1.09-.2.13-.29a1.28,1.28,0,0,1,.16-.27,3.31,3.31,0,0,1,1.87-1.38l.5,1.57a1.62,1.62,0,0,0-1.25,1.63,11.47,11.47,0,0,1,1,1.11,8.77,8.77,0,0,1,.73,1.14Zm-3.35-1.44a1.43,1.43,0,0,0,.85-.27,1.47,1.47,0,0,0,.54-.69c-.24-.21-.47-.41-.71-.6l-.68-.55-.27-.22a1.64,1.64,0,0,1-.25-.21,2.3,2.3,0,0,0-.78.54.84.84,0,0,0-.18.51,1.4,1.4,0,0,0,.12.58,1.67,1.67,0,0,0,.31.47,1.4,1.4,0,0,0,.47.32A1.37,1.37,0,0,0,148.74,329.2Z"/><path class="cls-1" d="M164.26,322.81h-2.79v7.9h-1.64v-7.9H157v-1.64h7.24Z"/><path class="cls-1" d="M166.44,322.81v2.31H170l.41,1.64h-4v2.31h4.79v1.64h-6.42v-9.54h6.42v1.64Z"/><path class="cls-1" d="M180.13,329.43a5.24,5.24,0,0,1-1.59,1.07,5,5,0,0,1-3.86,0,4.92,4.92,0,0,1-2.64-2.64,5,5,0,0,1,0-3.86,4.93,4.93,0,0,1,1.06-1.58,5.07,5.07,0,0,1,1.58-1.07,5.09,5.09,0,0,1,3.86,0,5.24,5.24,0,0,1,1.59,1.07L179,323.58a3.38,3.38,0,0,0-1.08-.73,3.25,3.25,0,0,0-1.28-.25,3.2,3.2,0,0,0-1.27.25,3.37,3.37,0,0,0-1.8,1.81,3.21,3.21,0,0,0-.26,1.27,3.24,3.24,0,0,0,.26,1.27,3.15,3.15,0,0,0,.72,1.08,3.21,3.21,0,0,0,2.35,1,3.43,3.43,0,0,0,1.28-.24,3.38,3.38,0,0,0,1.08-.73Z"/><path class="cls-1" d="M188,321.17v9.54h-1.63v-3.95h-4v3.95h-1.64v-9.54h1.64v3.95h4v-3.95Z"/><path class="cls-1" d="M196.49,321.16v9.54h-1.77l-3.83-6.53v6.53h-1.64v-9.54H191l3.83,6.52v-6.52Z"/><path class="cls-1" d="M202.36,321a4.82,4.82,0,0,1,1.93.38,5.07,5.07,0,0,1,1.58,1.07,4.93,4.93,0,0,1,1.06,1.58,5,5,0,0,1,0,3.86,4.92,4.92,0,0,1-2.64,2.64,5,5,0,0,1-3.86,0,4.92,4.92,0,0,1-2.64-2.64,5,5,0,0,1,0-3.86,4.93,4.93,0,0,1,1.06-1.58,5.07,5.07,0,0,1,1.58-1.07A4.85,4.85,0,0,1,202.36,321Zm0,1.63a3.22,3.22,0,0,0-2.34,1,3.38,3.38,0,0,0-.73,1.08,3.2,3.2,0,0,0-.25,1.27,3.23,3.23,0,0,0,.25,1.27,3.18,3.18,0,0,0,.73,1.08,3.24,3.24,0,0,0,1.07.73,3.41,3.41,0,0,0,1.27.24,3.46,3.46,0,0,0,1.28-.24,3.38,3.38,0,0,0,1.08-.73,3,3,0,0,0,.72-1.08,3.42,3.42,0,0,0,.25-1.27,3.38,3.38,0,0,0-.25-1.27,3.2,3.2,0,0,0-.72-1.08,3.38,3.38,0,0,0-1.08-.73A3.28,3.28,0,0,0,202.36,322.6Z"/><path class="cls-1" d="M213.61,329.07v1.64h-5.39v-9.53h1.64v7.89Z"/><path class="cls-1" d="M218.55,321a4.85,4.85,0,0,1,1.93.38,5.07,5.07,0,0,1,1.58,1.07,4.93,4.93,0,0,1,1.06,1.58,5,5,0,0,1,0,3.86,4.92,4.92,0,0,1-2.64,2.64,5,5,0,0,1-3.86,0,4.92,4.92,0,0,1-2.64-2.64,5,5,0,0,1,0-3.86,4.93,4.93,0,0,1,1.06-1.58,5.07,5.07,0,0,1,1.58-1.07A4.85,4.85,0,0,1,218.55,321Zm0,1.63a3.2,3.2,0,0,0-1.27.25,3.31,3.31,0,0,0-1.8,4.35,3,3,0,0,0,.73,1.08,3.24,3.24,0,0,0,1.07.73,3.48,3.48,0,0,0,2.54,0,3.32,3.32,0,0,0,1.09-.73,3,3,0,0,0,.72-1.08,3.42,3.42,0,0,0,.25-1.27,3.38,3.38,0,0,0-.25-1.27,3.2,3.2,0,0,0-.72-1.08,3.32,3.32,0,0,0-1.09-.73A3.2,3.2,0,0,0,218.55,322.6Z"/><path class="cls-1" d="M234,325.52a2.75,2.75,0,0,1,0,.41,4.86,4.86,0,0,1-.39,1.93A4.92,4.92,0,0,1,231,330.5a5,5,0,0,1-3.86,0,4.92,4.92,0,0,1-2.64-2.64,5,5,0,0,1,0-3.86,4.93,4.93,0,0,1,1.06-1.58,5.07,5.07,0,0,1,1.58-1.07,4.89,4.89,0,0,1,5.43,1.07l-1.14,1.16a3.38,3.38,0,0,0-1.08-.73,3.28,3.28,0,0,0-1.28-.25,3.22,3.22,0,0,0-2.34,1,3.38,3.38,0,0,0-.73,1.08,3.2,3.2,0,0,0-.25,1.27,3.23,3.23,0,0,0,.25,1.27,3.18,3.18,0,0,0,.73,1.08,3.24,3.24,0,0,0,1.07.73,3.41,3.41,0,0,0,1.27.24,3.46,3.46,0,0,0,1.28-.24,3.38,3.38,0,0,0,1.08-.73,3.34,3.34,0,0,0,.87-1.54h-4.42l.41-1.63h5.67C233.93,325.25,234,325.38,234,325.52Z"/><path class="cls-1" d="M236.51,330.71h-1.63v-9.53h1.63Z"/><path class="cls-1" d="M239.47,322.81v2.31H243l.41,1.64h-4v2.31h4.79v1.64h-6.42v-9.54h6.42v1.64Z"/><path class="cls-1" d="M251.66,328a3.11,3.11,0,0,1-.22,1.21,2.42,2.42,0,0,1-.62.91,2.62,2.62,0,0,1-1,.58,3.7,3.7,0,0,1-1.28.21,5.31,5.31,0,0,1-2-.36,5.72,5.72,0,0,1-1.46-.83l1.13-1.13a3.43,3.43,0,0,0,1,.63,2.44,2.44,0,0,0,.64.17,3.67,3.67,0,0,0,.49.05,2.17,2.17,0,0,0,.65-.09,1.72,1.72,0,0,0,.51-.24,1.08,1.08,0,0,0,.47-.9.9.9,0,0,0-.25-.61,1.39,1.39,0,0,0-.49-.36,3,3,0,0,0-.52-.22l-.49-.15a.3.3,0,0,0-.12,0l-.1,0-.08,0c-.19-.06-.46-.15-.82-.29a4.78,4.78,0,0,1-1.07-.56,2.4,2.4,0,0,1-1.24-2,2.94,2.94,0,0,1,.28-1.36,2.5,2.5,0,0,1,.73-.9,2.75,2.75,0,0,1,1-.49,4.07,4.07,0,0,1,1.08-.15,5,5,0,0,1,1.65.23,6.15,6.15,0,0,1,1.06.46,2.65,2.65,0,0,1,.35.24l.25.21-1.16,1.17a2.93,2.93,0,0,0-.75-.56,2.77,2.77,0,0,0-1.2-.27,2,2,0,0,0-.54.07,1.71,1.71,0,0,0-.48.18,1.08,1.08,0,0,0-.6,1,.85.85,0,0,0,.25.63,1.62,1.62,0,0,0,.49.37,3.21,3.21,0,0,0,.54.22l.54.15.16,0,.26.08.45.16.56.26a4.24,4.24,0,0,1,.61.36A2.46,2.46,0,0,1,251.66,328Z"/></g></g></svg>